<svg width="139" height="38" viewBox="0 0 139 38" fill="none" xmlns="http://www.w3.org/2000/svg">
<g clip-path="url(#clip0)">
<path d="M45.8809 15.9766V3.23591H49.245V15.9766H45.8809ZM51.1849 15.9766V9.49889C51.1849 9.06943 51.1728 8.63399 51.1491 8.19261C51.137 7.75123 51.1012 7.3158 51.0418 6.88633H54.0838L54.2985 8.60418L54.0838 8.51471C54.4177 7.91822 54.8532 7.45895 55.3901 7.13685C55.9387 6.80284 56.565 6.63581 57.269 6.63581C59.4041 6.63581 60.472 7.94209 60.472 10.5547V15.9766H57.2332V10.6978C57.2332 10.1371 57.1376 9.73749 56.9469 9.49889C56.7558 9.24837 56.4576 9.12311 56.0521 9.12311C55.5629 9.12311 55.1693 9.29014 54.8711 9.62415C54.5727 9.94625 54.4238 10.3757 54.4238 10.9125V15.9766H51.1849ZM65.8406 16.1198C64.0272 16.1198 62.5957 15.7559 61.546 15.0282L62.3691 12.8272C62.8584 13.1612 63.4131 13.4237 64.0333 13.6146C64.6657 13.7935 65.2741 13.883 65.8585 13.883C66.2282 13.883 66.5145 13.8293 66.7174 13.7219C66.9203 13.6146 67.0216 13.4654 67.0216 13.2746C67.0216 13.1076 66.944 12.9764 66.789 12.8809C66.6459 12.7855 66.3656 12.69 65.948 12.5946L64.4807 12.2546C63.5502 12.0637 62.8762 11.7655 62.4586 11.3599C62.0531 10.9424 61.8502 10.3697 61.8502 9.64205C61.8502 9.05751 62.0231 8.53858 62.3691 8.08525C62.7152 7.63192 63.1923 7.28001 63.8007 7.02949C64.4209 6.76705 65.1309 6.63581 65.9301 6.63581C66.5982 6.63581 67.2482 6.7372 67.8806 6.94002C68.5129 7.13088 69.0974 7.39335 69.6342 7.72736L68.7753 9.87467C68.2982 9.5645 67.809 9.32593 67.3079 9.1589C66.8069 8.99188 66.3356 8.90838 65.8943 8.90838C65.5482 8.90838 65.268 8.96804 65.0533 9.08733C64.8504 9.19469 64.7491 9.35574 64.7491 9.57047C64.7491 9.70171 64.8088 9.80907 64.928 9.89257C65.0472 9.96414 65.2741 10.0417 65.608 10.1252L67.129 10.4652C68.0953 10.6799 68.7871 11.008 69.2047 11.4494C69.6342 11.8907 69.8489 12.4872 69.8489 13.2388C69.8489 14.1335 69.491 14.8374 68.7753 15.3503C68.0713 15.8633 67.0932 16.1198 65.8406 16.1198ZM71.0629 19.8418V9.49889C71.0629 9.06943 71.051 8.63399 71.0271 8.19261C71.0153 7.75123 70.9795 7.3158 70.9197 6.88633H73.9617L74.1765 8.58629L74.0691 8.47892C74.2599 7.93017 74.6299 7.48876 75.1785 7.15475C75.7272 6.80878 76.3535 6.63581 77.0574 6.63581C77.8448 6.63581 78.5366 6.83863 79.1332 7.24422C79.7416 7.64981 80.2186 8.21648 80.5647 8.94417C80.9108 9.65994 81.0836 10.495 81.0836 11.4494C81.0836 12.3918 80.9108 13.2149 80.5647 13.9188C80.2186 14.6226 79.7416 15.1654 79.1332 15.5472C78.5366 15.9289 77.8448 16.1198 77.0574 16.1198C76.3535 16.1198 75.7272 15.9587 75.1785 15.6366C74.6299 15.3145 74.2599 14.8731 74.0691 14.3124L74.3017 13.9009V19.8418H71.0629ZM76.0733 13.704C76.6577 13.704 77.0993 13.5132 77.3974 13.1314C77.6956 12.7378 77.8448 12.1771 77.8448 11.4494C77.8448 10.6978 77.6898 10.1192 77.3795 9.71362C77.0814 9.29608 76.6459 9.08733 76.0733 9.08733C75.4888 9.08733 75.0415 9.28416 74.7312 9.67784C74.4209 10.0715 74.2659 10.6501 74.2659 11.4136C74.2659 12.1532 74.4209 12.7199 74.7312 13.1135C75.0415 13.5072 75.4888 13.704 76.0733 13.704ZM82.4174 15.9766V6.88633H85.6563V15.9766H82.4174ZM82.3279 2.43066H85.7099V5.34743H82.3279V2.43066ZM87.4109 15.9766V9.49889C87.4109 9.06943 87.399 8.63399 87.3751 8.19261C87.3632 7.75123 87.3275 7.3158 87.2677 6.88633H90.3097L90.6139 9.33785L90.3097 9.1589C90.4289 8.33577 90.7571 7.71544 91.2939 7.2979C91.8426 6.88036 92.4631 6.6716 93.1549 6.6716C93.3815 6.6716 93.5783 6.6895 93.7454 6.72528C93.9125 6.76107 94.0557 6.80878 94.1749 6.86844V9.82099C93.662 9.58239 93.1667 9.46311 92.6897 9.46311C92.2602 9.46311 91.8962 9.53468 91.5981 9.67784C91.3 9.80907 91.0674 10.0178 90.9002 10.3041C90.7331 10.5904 90.6497 10.9602 90.6497 11.4136V15.9766H87.4109ZM102.978 15.0461C102.524 15.3921 101.976 15.6605 101.331 15.8514C100.687 16.0303 100.043 16.1198 99.3987 16.1198C98.3487 16.1198 97.4422 15.9289 96.6788 15.5472C95.9272 15.1654 95.3486 14.6226 94.9431 13.9188C94.5372 13.203 94.3347 12.362 94.3347 11.3957C94.3347 10.4652 94.5254 9.64205 94.9073 8.92628C95.3009 8.21051 95.8378 7.64981 96.5178 7.24422C97.1977 6.83863 97.9851 6.63581 98.8798 6.63581C99.7505 6.63581 100.502 6.82667 101.134 7.20843C101.779 7.59018 102.274 8.13296 102.62 8.83681C102.965 9.54066 103.139 10.3697 103.139 11.3241V11.7536H97.1977L97.2335 10.2505H101.188L100.401 10.7694C100.401 10.1252 100.276 9.64802 100.025 9.33785C99.7863 9.01575 99.4345 8.8547 98.9693 8.8547C98.4561 8.8547 98.0624 9.04556 97.7883 9.42732C97.5256 9.79712 97.3946 10.3638 97.3946 11.1273C97.3946 12.0697 97.5675 12.7437 97.9135 13.1493C98.2593 13.543 98.8082 13.7398 99.5598 13.7398C100.013 13.7398 100.466 13.6683 100.92 13.5251C101.385 13.37 101.797 13.1612 102.154 12.8988L102.978 15.0461ZM114.031 15.9766H110.846V13.8472L111.061 14.3124C110.858 14.8731 110.477 15.3145 109.916 15.6366C109.367 15.9587 108.747 16.1198 108.055 16.1198C107.279 16.1198 106.587 15.9229 105.979 15.5293C105.382 15.1237 104.911 14.563 104.565 13.8472C104.219 13.1314 104.046 12.2964 104.046 11.342C104.046 10.3996 104.214 9.57645 104.547 8.8726C104.894 8.15682 105.371 7.60808 105.979 7.22632C106.587 6.83265 107.279 6.63581 108.055 6.63581C108.747 6.63581 109.367 6.80878 109.916 7.15475C110.477 7.48876 110.858 7.9242 111.061 8.46103L110.793 8.8547V2.80644H114.031V15.9766ZM109.057 13.704C109.629 13.704 110.071 13.5072 110.381 13.1135C110.691 12.7199 110.846 12.1413 110.846 11.3778C110.846 10.6501 110.685 10.0894 110.363 9.69573C110.053 9.29014 109.618 9.08733 109.057 9.08733C108.472 9.08733 108.025 9.28416 107.715 9.67784C107.404 10.0596 107.25 10.6143 107.25 11.342C107.25 12.1055 107.411 12.69 107.733 13.0956C108.055 13.5012 108.496 13.704 109.057 13.704ZM45.8809 34.5099V21.7692H49.245V34.5099H45.8809ZM51.1849 34.5099V28.0322C51.1849 27.6028 51.1728 27.1673 51.1491 26.7259C51.137 26.2846 51.1012 25.8491 51.0418 25.4197H54.0838L54.2985 27.1375L54.0838 27.048C54.4177 26.4516 54.8532 25.9923 55.3901 25.6702C55.9387 25.3362 56.565 25.1691 57.269 25.1691C59.4041 25.1691 60.472 26.4754 60.472 29.088V34.5099H57.2332V29.2311C57.2332 28.6704 57.1376 28.2708 56.9469 28.0322C56.7558 27.7817 56.4576 27.6564 56.0521 27.6564C55.5629 27.6564 55.1693 27.8235 54.8711 28.1575C54.5727 28.4796 54.4238 28.909 54.4238 29.4459V34.5099H51.1849ZM65.8406 34.6531C64.0272 34.6531 62.5957 34.2891 61.546 33.5616L62.3691 31.3606C62.8584 31.6946 63.4131 31.9571 64.0333 32.1479C64.6657 32.3268 65.2741 32.4163 65.8585 32.4163C66.2282 32.4163 66.5145 32.3626 66.7174 32.2553C66.9203 32.1479 67.0216 31.9987 67.0216 31.8079C67.0216 31.6409 66.944 31.5097 66.789 31.4142C66.6459 31.3188 66.3656 31.2234 65.948 31.1279L64.4807 30.7879C63.5502 30.5971 62.8762 30.2988 62.4586 29.8932C62.0531 29.4757 61.8502 28.9031 61.8502 28.1754C61.8502 27.5908 62.0231 27.0719 62.3691 26.6186C62.7152 26.1652 63.1923 25.8133 63.8007 25.5628C64.4209 25.3004 65.1309 25.1691 65.9301 25.1691C66.5982 25.1691 67.2482 25.2705 67.8806 25.4733C68.5129 25.6642 69.0974 25.9267 69.6342 26.2607L68.7753 28.408C68.2982 28.0978 67.809 27.8593 67.3079 27.6922C66.8069 27.5252 66.3356 27.4417 65.8943 27.4417C65.5482 27.4417 65.268 27.5014 65.0533 27.6207C64.8504 27.728 64.7491 27.8891 64.7491 28.1038C64.7491 28.235 64.8088 28.3424 64.928 28.4259C65.0472 28.4975 65.2741 28.575 65.608 28.6585L67.129 28.9985C68.0953 29.2132 68.7871 29.5413 69.2047 29.9827C69.6342 30.4241 69.8489 31.0206 69.8489 31.7721C69.8489 32.6668 69.491 33.3708 68.7753 33.8836C68.0713 34.3965 67.0932 34.6531 65.8406 34.6531ZM70.0627 27.7996V25.4197H77.1846V27.7996H70.0627ZM77.2025 31.9332V34.3847C76.9283 34.4921 76.6539 34.5636 76.3794 34.5994C76.1052 34.6352 75.8189 34.6531 75.5205 34.6531C74.2679 34.6531 73.3255 34.3013 72.6932 33.5973C72.0729 32.8934 71.7627 31.9391 71.7627 30.7343V23.3618L75.0015 22.324V30.7343C75.0015 31.0325 75.0613 31.283 75.1805 31.4858C75.3118 31.6767 75.4789 31.8198 75.6815 31.9153C75.8844 31.9987 76.1052 32.0405 76.3436 32.0405C76.4631 32.0405 76.5884 32.0345 76.7194 32.0226C76.8625 31.9987 77.0236 31.969 77.2025 31.9332ZM78.2407 34.5099V28.0322C78.2407 27.6028 78.2289 27.1673 78.2049 26.7259C78.1931 26.2846 78.1573 25.8491 78.0975 25.4197H81.1396L81.4438 27.8712L81.1396 27.6922C81.2591 26.8691 81.5869 26.2488 82.1238 25.8312C82.6727 25.4137 83.2929 25.2049 83.9847 25.2049C84.2116 25.2049 84.4085 25.2228 84.5753 25.2586C84.7424 25.2944 84.8855 25.3421 85.0047 25.4018V28.3543C84.4919 28.1157 83.9969 27.9964 83.5195 27.9964C83.09 27.9964 82.7264 28.068 82.428 28.2112C82.1298 28.3424 81.8972 28.5512 81.7301 28.8375C81.5633 29.1238 81.4796 29.4936 81.4796 29.9469V34.5099H78.2407ZM89.1329 34.6531C87.9755 34.6531 87.1108 34.331 86.5382 33.6868C85.9774 33.0426 85.6972 32.0584 85.6972 30.7343V25.4197H88.936V30.8237C88.936 31.2771 89.0313 31.6171 89.2223 31.8437C89.4131 32.0584 89.7055 32.1658 90.0992 32.1658C90.5523 32.1658 90.9162 32.0048 91.1907 31.6827C91.477 31.3606 91.6202 30.9311 91.6202 30.3943V25.4197H94.8948V34.5099H91.7275V32.7563L91.978 32.8458C91.7036 33.4302 91.3217 33.8776 90.8328 34.1878C90.3554 34.4981 89.7889 34.6531 89.1329 34.6531ZM101.16 34.6531C100.134 34.6531 99.2514 34.4681 98.512 34.0984C97.7723 33.7165 97.2057 33.1739 96.8121 32.47C96.4302 31.7661 96.2394 30.9371 96.2394 29.9827C96.2394 29.0164 96.4481 28.1754 96.8657 27.4596C97.2952 26.7319 97.8857 26.1712 98.6373 25.7776C99.4006 25.372 100.289 25.1691 101.304 25.1691C101.971 25.1691 102.628 25.2705 103.272 25.4733C103.916 25.6642 104.429 25.9267 104.811 26.2607L103.988 28.4975C103.666 28.235 103.29 28.0263 102.86 27.8712C102.431 27.7161 102.019 27.6386 101.626 27.6386C100.981 27.6386 100.474 27.8235 100.105 28.1933C99.7346 28.5631 99.5499 29.1357 99.5499 29.9111C99.5499 30.6985 99.7288 31.283 100.087 31.6648C100.456 32.0345 100.975 32.2195 101.643 32.2195C102.025 32.2195 102.431 32.1479 102.86 32.0048C103.29 31.8497 103.666 31.6349 103.988 31.3606L104.811 33.5616C104.405 33.9076 103.874 34.176 103.218 34.3668C102.574 34.5576 101.888 34.6531 101.16 34.6531ZM104.873 27.7996V25.4197H111.995V27.7996H104.873ZM112.013 31.9332V34.3847C111.739 34.4921 111.465 34.5636 111.19 34.5994C110.916 34.6352 110.629 34.6531 110.331 34.6531C109.079 34.6531 108.136 34.3013 107.504 33.5973C106.884 32.8934 106.573 31.9391 106.573 30.7343V23.3618L109.812 22.324V30.7343C109.812 31.0325 109.872 31.283 109.991 31.4858C110.123 31.6767 110.289 31.8198 110.492 31.9153C110.695 31.9987 110.916 32.0405 111.154 32.0405C111.273 32.0405 111.399 32.0345 111.53 32.0226C111.673 31.9987 111.834 31.969 112.013 31.9332ZM113.051 34.5099V25.4197H116.29V34.5099H113.051ZM112.962 20.964H116.344V23.8808H112.962V20.964ZM122.626 34.6531C121.6 34.6531 120.711 34.4623 119.96 34.0805C119.22 33.6986 118.648 33.1561 118.242 32.4521C117.836 31.7363 117.634 30.8893 117.634 29.9111C117.634 28.9448 117.836 28.1098 118.242 27.4059C118.648 26.6902 119.22 26.1414 119.96 25.7597C120.711 25.366 121.6 25.1691 122.626 25.1691C123.628 25.1691 124.499 25.366 125.239 25.7597C125.99 26.1414 126.569 26.6902 126.974 27.4059C127.38 28.1098 127.583 28.9448 127.583 29.9111C127.583 30.8893 127.38 31.7363 126.974 32.4521C126.569 33.1561 125.99 33.6986 125.239 34.0805C124.499 34.4623 123.628 34.6531 122.626 34.6531ZM122.626 32.2374C123.187 32.2374 123.616 32.0524 123.914 31.6827C124.224 31.3129 124.38 30.7223 124.38 29.9111C124.38 29.1119 124.231 28.5273 123.932 28.1575C123.634 27.7877 123.199 27.6028 122.626 27.6028C122.041 27.6028 121.594 27.7877 121.284 28.1575C120.986 28.5273 120.837 29.1119 120.837 29.9111C120.837 30.7223 120.986 31.3129 121.284 31.6827C121.594 32.0524 122.041 32.2374 122.626 32.2374ZM128.928 34.5099V28.0322C128.928 27.6028 128.916 27.1673 128.892 26.7259C128.88 26.2846 128.844 25.8491 128.785 25.4197H131.827L132.041 27.1375L131.827 27.048C132.161 26.4516 132.596 25.9923 133.133 25.6702C133.682 25.3362 134.308 25.1691 135.012 25.1691C137.147 25.1691 138.215 26.4754 138.215 29.088V34.5099H134.976V29.2311C134.976 28.6704 134.88 28.2708 134.69 28.0322C134.499 27.7817 134.2 27.6564 133.795 27.6564C133.306 27.6564 132.912 27.8235 132.614 28.1575C132.316 28.4796 132.167 28.909 132.167 29.4459V34.5099H128.928Z" fill="#382396"/>
<path fill-rule="evenodd" clip-rule="evenodd" d="M0 30.9987L17.5833 37.6307V16.7401L0 8.28418V30.9987Z" fill="url(#paint0_linear)"/>
<path fill-rule="evenodd" clip-rule="evenodd" d="M3.81262 28.6778L17.5834 37.6309V16.7403L3.81262 7.78711V28.6778Z" fill="white"/>
<path fill-rule="evenodd" clip-rule="evenodd" d="M17.5659 16.7643V37.6551L35.1494 31.0231V8.30859L17.5659 16.7643Z" fill="url(#paint1_linear)"/>
<path fill-rule="evenodd" clip-rule="evenodd" d="M17.5659 16.7642V37.6549L31.3367 28.7017V7.81104L17.5659 16.7642Z" fill="url(#paint2_linear)"/>
<path fill-rule="evenodd" clip-rule="evenodd" d="M22.5385 8.54485C21.8448 8.54485 21.1934 8.27724 20.7041 7.79128C20.2147 7.30564 19.9452 6.6587 19.9452 5.96981C19.9452 5.78096 19.7924 5.62793 19.6035 5.62793C19.4147 5.62793 19.2616 5.78096 19.2616 5.96981C19.2616 6.6587 18.9922 7.30564 18.503 7.79128C18.0135 8.27724 17.3621 8.54485 16.6685 8.54485C16.4797 8.54485 16.3267 8.69788 16.3267 8.88673C16.3267 9.07554 16.4797 9.2286 16.6685 9.2286C18.0984 9.2286 19.2616 10.387 19.2616 11.8111C19.2616 11.9999 19.4147 12.153 19.6035 12.153C19.7924 12.153 19.9452 11.9999 19.9452 11.8111C19.9452 10.387 21.1086 9.2286 22.5385 9.2286C22.7273 9.2286 22.8804 9.07554 22.8804 8.88673C22.8804 8.69788 22.7273 8.54485 22.5385 8.54485Z" fill="url(#paint3_linear)"/>
<path fill-rule="evenodd" clip-rule="evenodd" d="M15.8894 5.87153C14.8827 5.87153 14.0637 5.05862 14.0637 4.05916C14.0637 3.8705 13.9106 3.71729 13.7218 3.71729C13.5331 3.71729 13.3801 3.8705 13.3801 4.05916C13.3801 5.05862 12.561 5.87153 11.5543 5.87153C11.3654 5.87153 11.2124 6.02456 11.2124 6.21341C11.2124 6.40225 11.3654 6.55528 11.5543 6.55528C12.561 6.55528 13.3801 7.37068 13.3801 8.37327C13.3801 8.56196 13.5331 8.71499 13.7218 8.71499C13.9106 8.71499 14.0637 8.56196 14.0637 8.37327C14.0637 7.37068 14.8827 6.55528 15.8894 6.55528C16.0783 6.55528 16.2313 6.40225 16.2313 6.21341C16.2313 6.02456 16.0783 5.87153 15.8894 5.87153Z" fill="#382396"/>
<mask id="mask0" mask-type="alpha" maskUnits="userSpaceOnUse" x="16" y="0" width="5" height="5">
<path fill-rule="evenodd" clip-rule="evenodd" d="M16.1036 0.484863H20.1566V4.52124H16.1036V0.484863Z" fill="white"/>
</mask>
<g mask="url(#mask0)">
<path fill-rule="evenodd" clip-rule="evenodd" d="M16.4455 2.84717C17.186 2.84717 17.7885 3.44488 17.7885 4.17953C17.7885 4.36822 17.9414 4.52141 18.1302 4.52141C18.3191 4.52141 18.4721 4.36822 18.4721 4.17953C18.4721 3.44254 19.0743 2.84286 19.8147 2.84286C20.0036 2.84286 20.1566 2.68966 20.1566 2.50098C20.1566 2.31213 20.0036 2.15927 19.8147 2.15927C19.0743 2.15927 18.4721 1.5614 18.4721 0.826739C18.4721 0.637894 18.3191 0.484863 18.1302 0.484863C17.9414 0.484863 17.7885 0.637894 17.7885 0.826739C17.7885 1.56388 17.186 2.16341 16.4455 2.16341C16.2567 2.16341 16.1036 2.31645 16.1036 2.50529C16.1036 2.69414 16.2567 2.84717 16.4455 2.84717Z" fill="url(#paint4_linear)"/>
</g>
</g>
<defs>
<linearGradient id="paint0_linear" x1="0.32061" y1="9.35435" x2="0.32061" y2="37.6307" gradientUnits="userSpaceOnUse">
<stop stop-color="#2E1673"/>
<stop offset="1" stop-color="#382396"/>
</linearGradient>
<linearGradient id="paint1_linear" x1="17.5659" y1="8.30859" x2="17.5659" y2="37.6551" gradientUnits="userSpaceOnUse">
<stop stop-color="#250F64"/>
<stop offset="1" stop-color="#382396"/>
</linearGradient>
<linearGradient id="paint2_linear" x1="17.5659" y1="7.81104" x2="17.5659" y2="37.6549" gradientUnits="userSpaceOnUse">
<stop stop-color="#7443FF"/>
<stop offset="1" stop-color="#382396"/>
</linearGradient>
<linearGradient id="paint3_linear" x1="16.4001" y1="5.62793" x2="16.4001" y2="12.0068" gradientUnits="userSpaceOnUse">
<stop stop-color="#F7D26A"/>
<stop offset="1" stop-color="#DCA338"/>
</linearGradient>
<linearGradient id="paint4_linear" x1="16.1036" y1="0.484863" x2="16.1036" y2="4.52141" gradientUnits="userSpaceOnUse">
<stop stop-color="#F7D26A"/>
<stop offset="0.977601" stop-color="#DCA338"/>
</linearGradient>
<clipPath id="clip0">
<rect width="139" height="37.7057" fill="white"/>
</clipPath>
</defs>
</svg>
